999
"DXF R12 Output" (www.mydxf.blogspot.com)
 0 
SECTION
 2 
HEADER
 9 
$ACADVER
 1 
AC1009
 9 
$EXTMIN
 10 
 0 
 20 
 0 
 9 
$EXTMAX
 10 
 8.5 
 20 
 11 
 0 
ENDSEC
 0 
SECTION
 2 
ENTITIES
0
LINE
8
Layer 1
10
87.818600
20
10.148400
11
70.818600
21
10.148400
0
LINE
8
Layer 1
10
70.818600
20
10.148400
11
70.818600
21
3.548400
0
LINE
8
Layer 1
10
70.818600
20
3.548400
11
36.818600
21
3.548400
0
LINE
8
Layer 1
10
36.818600
20
3.548400
11
36.818600
21
10.148400
0
LINE
8
Layer 1
10
36.818600
20
10.148400
11
28.218600
21
10.148400
0
LINE
8
Layer 1
10
28.218600
20
10.148400
11
28.218600
21
3.548400
0
LINE
8
Layer 1
10
28.218600
20
3.548400
11
19.818600
21
3.548400
0
LINE
8
Layer 1
10
19.818600
20
3.548400
11
19.818600
21
16.948400
0
LINE
8
Layer 1
10
19.818600
20
16.948400
11
87.818600
21
16.948400
0
LINE
8
Layer 1
10
87.818600
20
16.948400
11
87.818600
21
10.148400
0
LINE
8
Layer 1
10
8.618570
20
20.698400
11
16.618600
21
20.698400
0
LINE
8
Layer 1
10
16.618600
20
20.698400
11
16.618600
21
9.548400
0
LINE
8
Layer 1
10
16.618600
20
9.548400
11
8.618570
21
9.548400
0
LINE
8
Layer 1
10
8.618570
20
9.548400
11
8.618570
21
20.698400
0
LINE
8
Layer 1
10
149.664000
20
29.853400
11
154.394000
21
29.853400
0
LINE
8
Layer 1
10
154.394000
20
29.853400
11
154.394000
21
20.393400
0
LINE
8
Layer 1
10
154.394000
20
20.393400
11
149.664000
21
20.393400
0
LINE
8
Layer 1
10
149.664000
20
20.393400
11
149.664000
21
29.853400
0
LINE
8
Layer 1
10
141.064000
20
29.853400
11
145.794000
21
29.853400
0
LINE
8
Layer 1
10
145.794000
20
29.853400
11
145.794000
21
20.393400
0
LINE
8
Layer 1
10
145.794000
20
20.393400
11
141.064000
21
20.393400
0
LINE
8
Layer 1
10
141.064000
20
20.393400
11
141.064000
21
29.853400
0
LINE
8
Layer 1
10
132.464000
20
29.853400
11
137.194000
21
29.853400
0
LINE
8
Layer 1
10
137.194000
20
29.853400
11
137.194000
21
20.393400
0
LINE
8
Layer 1
10
137.194000
20
20.393400
11
132.464000
21
20.393400
0
LINE
8
Layer 1
10
132.464000
20
20.393400
11
132.464000
21
29.853400
0
LINE
8
Layer 1
10
123.454000
20
29.853400
11
128.184000
21
29.853400
0
LINE
8
Layer 1
10
128.184000
20
29.853400
11
128.184000
21
20.393400
0
LINE
8
Layer 1
10
128.184000
20
20.393400
11
123.454000
21
20.393400
0
LINE
8
Layer 1
10
123.454000
20
20.393400
11
123.454000
21
29.853400
0
LINE
8
Layer 1
10
114.854000
20
29.853400
11
119.584000
21
29.853400
0
LINE
8
Layer 1
10
119.584000
20
29.853400
11
119.584000
21
20.393400
0
LINE
8
Layer 1
10
119.584000
20
20.393400
11
114.854000
21
20.393400
0
LINE
8
Layer 1
10
114.854000
20
20.393400
11
114.854000
21
29.853400
0
LINE
8
Layer 1
10
106.254000
20
29.853400
11
110.984000
21
29.853400
0
LINE
8
Layer 1
10
110.984000
20
29.853400
11
110.984000
21
20.393400
0
LINE
8
Layer 1
10
110.984000
20
20.393400
11
106.254000
21
20.393400
0
LINE
8
Layer 1
10
106.254000
20
20.393400
11
106.254000
21
29.853400
0
LINE
8
Layer 1
10
97.238600
20
29.853400
11
101.969000
21
29.853400
0
LINE
8
Layer 1
10
101.969000
20
29.853400
11
101.969000
21
20.393400
0
LINE
8
Layer 1
10
101.969000
20
20.393400
11
97.238600
21
20.393400
0
LINE
8
Layer 1
10
97.238600
20
20.393400
11
97.238600
21
29.853400
0
LINE
8
Layer 1
10
88.638600
20
29.853400
11
93.368600
21
29.853400
0
LINE
8
Layer 1
10
93.368600
20
29.853400
11
93.368600
21
20.393400
0
LINE
8
Layer 1
10
93.368600
20
20.393400
11
88.638600
21
20.393400
0
LINE
8
Layer 1
10
88.638600
20
20.393400
11
88.638600
21
29.853400
0
LINE
8
Layer 1
10
80.038600
20
29.853400
11
84.768600
21
29.853400
0
LINE
8
Layer 1
10
84.768600
20
29.853400
11
84.768600
21
20.393400
0
LINE
8
Layer 1
10
84.768600
20
20.393400
11
80.038600
21
20.393400
0
LINE
8
Layer 1
10
80.038600
20
20.393400
11
80.038600
21
29.853400
0
LINE
8
Layer 1
10
71.438600
20
29.853400
11
76.168600
21
29.853400
0
LINE
8
Layer 1
10
76.168600
20
29.853400
11
76.168600
21
20.393400
0
LINE
8
Layer 1
10
76.168600
20
20.393400
11
71.438600
21
20.393400
0
LINE
8
Layer 1
10
71.438600
20
20.393400
11
71.438600
21
29.853400
0
LINE
8
Layer 1
10
62.838600
20
29.853400
11
67.568600
21
29.853400
0
LINE
8
Layer 1
10
67.568600
20
29.853400
11
67.568600
21
20.393400
0
LINE
8
Layer 1
10
67.568600
20
20.393400
11
62.838600
21
20.393400
0
LINE
8
Layer 1
10
62.838600
20
20.393400
11
62.838600
21
29.853400
0
LINE
8
Layer 1
10
54.238600
20
29.853400
11
58.968600
21
29.853400
0
LINE
8
Layer 1
10
58.968600
20
29.853400
11
58.968600
21
20.393400
0
LINE
8
Layer 1
10
58.968600
20
20.393400
11
54.238600
21
20.393400
0
LINE
8
Layer 1
10
54.238600
20
20.393400
11
54.238600
21
29.853400
0
LINE
8
Layer 1
10
45.638600
20
29.853400
11
50.368600
21
29.853400
0
LINE
8
Layer 1
10
50.368600
20
29.853400
11
50.368600
21
20.393400
0
LINE
8
Layer 1
10
50.368600
20
20.393400
11
45.638600
21
20.393400
0
LINE
8
Layer 1
10
45.638600
20
20.393400
11
45.638600
21
29.853400
0
LINE
8
Layer 1
10
37.038600
20
29.853400
11
41.768600
21
29.853400
0
LINE
8
Layer 1
10
41.768600
20
29.853400
11
41.768600
21
20.393400
0
LINE
8
Layer 1
10
41.768600
20
20.393400
11
37.038600
21
20.393400
0
LINE
8
Layer 1
10
37.038600
20
20.393400
11
37.038600
21
29.853400
0
LINE
8
Layer 1
10
28.438600
20
29.853400
11
33.168600
21
29.853400
0
LINE
8
Layer 1
10
33.168600
20
29.853400
11
33.168600
21
20.393400
0
LINE
8
Layer 1
10
33.168600
20
20.393400
11
28.438600
21
20.393400
0
LINE
8
Layer 1
10
28.438600
20
20.393400
11
28.438600
21
29.853400
0
LINE
8
Layer 1
10
19.838600
20
29.853400
11
24.568600
21
29.853400
0
LINE
8
Layer 1
10
24.568600
20
29.853400
11
24.568600
21
20.393400
0
LINE
8
Layer 1
10
24.568600
20
20.393400
11
19.838600
21
20.393400
0
LINE
8
Layer 1
10
19.838600
20
20.393400
11
19.838600
21
29.853400
0
LINE
8
Layer 1
10
62.918600
20
29.648400
11
67.518600
21
29.648400
0
LINE
8
Layer 1
10
67.518600
20
29.648400
11
67.518600
21
20.648400
0
LINE
8
Layer 1
10
67.518600
20
20.648400
11
62.918600
21
20.648400
0
LINE
8
Layer 1
10
62.918600
20
20.648400
11
62.918600
21
29.648400
0
LINE
8
Layer 1
10
165.590000
20
47.720000
11
165.590000
21
4.090000
0
LINE
8
Layer 1
10
161.590000
20
0.090000
11
4.090200
21
0.090000
0
LINE
8
Layer 1
10
0.090200
20
4.113400
11
0.090200
21
47.720000
0
LINE
8
Layer 1
10
0.090100
20
4.113400
11
0.163684
21
3.326036
0
LINE
8
Layer 1
10
0.163684
20
3.326036
11
0.387903
21
2.575487
0
LINE
8
Layer 1
10
0.387903
20
2.575487
11
0.754061
21
1.883009
0
LINE
8
Layer 1
10
0.754061
20
1.883009
11
1.253462
21
1.269857
0
LINE
8
Layer 1
10
1.253462
20
1.269857
11
1.863703
21
0.766904
0
LINE
8
Layer 1
10
1.863703
20
0.766904
11
2.554043
21
0.396730
0
LINE
8
Layer 1
10
2.554043
20
0.396730
11
3.303277
21
0.168156
0
LINE
8
Layer 1
10
3.303277
20
0.168156
11
4.090200
21
0.090000
0
LINE
8
Layer 1
10
4.090200
20
51.720000
11
3.284069
21
51.638717
0
LINE
8
Layer 1
10
3.284069
20
51.638717
11
2.533237
21
51.405634
0
LINE
8
Layer 1
10
2.533237
20
51.405634
11
1.261802
21
50.548398
0
LINE
8
Layer 1
10
1.261802
20
50.548398
11
0.404566
21
49.276963
0
LINE
8
Layer 1
10
0.404566
20
49.276963
11
0.171483
21
48.526131
0
LINE
8
Layer 1
10
0.171483
20
48.526131
11
0.090200
21
47.720000
0
LINE
8
Layer 1
10
161.590000
20
0.090000
11
162.374005
21
0.167569
0
LINE
8
Layer 1
10
162.374005
20
0.167569
11
163.120734
21
0.394482
0
LINE
8
Layer 1
10
163.120734
20
0.394482
11
163.809202
21
0.762047
0
LINE
8
Layer 1
10
163.809202
20
0.762047
11
164.418427
21
1.261573
0
LINE
8
Layer 1
10
164.418427
20
1.261573
11
164.917953
21
1.870798
0
LINE
8
Layer 1
10
164.917953
20
1.870798
11
165.285518
21
2.559266
0
LINE
8
Layer 1
10
165.285518
20
2.559266
11
165.512431
21
3.305995
0
LINE
8
Layer 1
10
165.512431
20
3.305995
11
165.590000
21
4.090000
0
LINE
8
Layer 1
10
165.590000
20
47.720000
11
165.512431
21
48.504005
0
LINE
8
Layer 1
10
165.512431
20
48.504005
11
165.285518
21
49.250734
0
LINE
8
Layer 1
10
165.285518
20
49.250734
11
164.917953
21
49.939202
0
LINE
8
Layer 1
10
164.917953
20
49.939202
11
164.418427
21
50.548427
0
LINE
8
Layer 1
10
164.418427
20
50.548427
11
163.809202
21
51.047953
0
LINE
8
Layer 1
10
163.809202
20
51.047953
11
163.120734
21
51.415518
0
LINE
8
Layer 1
10
163.120734
20
51.415518
11
162.374005
21
51.642431
0
LINE
8
Layer 1
10
162.374005
20
51.642431
11
161.590000
21
51.720000
0
LINE
8
Layer 1
10
4.090200
20
51.720000
11
161.590000
21
51.720000
0
LINE
8
Layer 1
10
8.618600
20
20.698400
11
16.618600
21
20.698400
0
LINE
8
Layer 1
10
16.618600
20
20.698400
11
16.618600
21
9.548400
0
LINE
8
Layer 1
10
16.618600
20
9.548400
11
8.618600
21
9.548400
0
LINE
8
Layer 1
10
8.618600
20
9.548400
11
8.618600
21
20.698400
 0 
ENDSEC
 0 
EOF